<mxfile host="app.diagrams.net" modified="2021-05-07T06:11:16.827Z" agent="5.0 (Windows NT 10.0; Win64; x64) AppleWebKit/537.36 (KHTML, like Gecko) Chrome/88.0.4324.190 Safari/537.36" etag="yT8bCYMA4IOaM9GR3BfN" version="14.6.10" type="github">
  <diagram id="4Ie24Pnf4t5JCJ1dOWxc" name="第 1 页">
    <mxGraphModel dx="1102" dy="582" grid="1" gridSize="10" guides="1" tooltips="1" connect="1" arrows="1" fold="1" page="1" pageScale="1" pageWidth="827" pageHeight="1169" math="0" shadow="0">
      <root>
        <mxCell id="0" />
        <mxCell id="1" parent="0" />
        <mxCell id="jJyiKmdqER3AJUHUzP-C-4" style="edgeStyle=orthogonalEdgeStyle;rounded=0;orthogonalLoop=1;jettySize=auto;html=1;exitX=1;exitY=0.5;exitDx=0;exitDy=0;curved=1;" edge="1" parent="1" source="jJyiKmdqER3AJUHUzP-C-2" target="jJyiKmdqER3AJUHUzP-C-3">
          <mxGeometry relative="1" as="geometry" />
        </mxCell>
        <mxCell id="jJyiKmdqER3AJUHUzP-C-2" value="" style="rounded=0;whiteSpace=wrap;html=1;" vertex="1" parent="1">
          <mxGeometry x="130" y="150" width="120" height="60" as="geometry" />
        </mxCell>
        <mxCell id="jJyiKmdqER3AJUHUzP-C-3" value="" style="rounded=0;whiteSpace=wrap;html=1;" vertex="1" parent="1">
          <mxGeometry x="414" y="150" width="120" height="60" as="geometry" />
        </mxCell>
      </root>
    </mxGraphModel>
  </diagram>
</mxfile>
